PathFileType	4	(X/Y/Z)	D:\TRACE\v60_Jaco2_6-2-23\JustArmDRS_Motion3_2-platform.trc
DataRate	CameraRate	NumFrames	NumMarkers	Units	OrigDataRate	OrigDataStartFrame	OrigNumFrames
100.00	100.00	      36	5	mm	100.00	6126	      7000
Frame#	Time	Left_Front			Right_Front			Left_Aft			Right_Aft			Post			
		X1	Y1	Z1	X2	Y2	Z2	X3	Y3	Z3	X4	Y4	Z4	X5	Y5	Z5	

6126	61.250	-789.64270	28.45552	-646.23889	780.62787	26.52985	-623.62567	-721.12994	-1.93599	487.48798	693.60486	-6.87957	592.97803	5.77191	1334.76013	-921.30945	
6127	61.260	-789.71832	28.41555	-646.21918	780.61694	26.41175	-623.64978	-721.17523	-1.88459	487.53723	693.52527	-6.75388	592.90619	5.65393	1334.55481	-921.62195	
6128	61.270	-789.71375	28.31070	-646.28516	780.64166	26.31439	-623.65808	-721.19543	-1.80699	487.45724	693.03107	-6.64293	593.00360	5.62658	1334.41492	-922.32245	
6129	61.280	-789.69922	27.99502	-646.49109	780.69043	26.13461	-623.65472	-721.14838	-1.63027	487.40173	693.27393	-6.45332	592.98383	5.82365	1334.36462	-923.00580	
6130	61.290	-789.61151	28.19401	-646.34454	780.68848	26.03884	-623.66040	-721.11877	-1.46962	487.33981	693.35938	-6.30503	592.89471	5.85553	1334.09766	-923.30865	
6131	61.300	-789.55743	28.12552	-646.36096	780.69287	25.89768	-623.64783	-721.13800	-1.35118	487.29022	693.47607	-6.16809	592.85974	5.84289	1333.73157	-923.79749	
6132	61.310	-789.26917	27.80681	-645.89075	780.67670	25.79765	-623.68829	-721.14496	-1.26307	487.24405	693.50098	-6.02392	592.85681	5.85624	1333.47705	-924.18781	
6133	61.320	-789.34045	27.73760	-646.01392	780.68573	25.61093	-623.72601	-721.19849	-1.15783	487.21106	693.50043	-5.99174	592.83929	5.80643	1333.31653	-924.60901	
6134	61.330	-789.31128	27.59652	-646.10864	780.79681	25.44905	-623.80420	-721.22699	-0.91524	487.07611	693.60211	-5.84720	592.85870	5.78527	1333.17444	-924.82117	
6135	61.340	-789.35339	27.51253	-646.33685	780.87476	25.23352	-623.92126	-721.09906	-0.74795	487.01453	693.67493	-5.77207	592.86780	5.84881	1333.03918	-924.90643	
6136	61.350	-789.35681	27.48524	-646.50885	780.98468	25.03960	-623.98865	-720.97723	-0.59900	486.90985	693.85522	-5.60564	592.88074	5.87693	1332.86755	-924.98242	
6137	61.360	-789.28943	27.29362	-646.70673	781.02161	24.88874	-624.06494	-720.74860	-0.53985	486.89841	693.91895	-5.55522	592.85254	6.03247	1332.50415	-925.23914	
6138	61.370	-789.07654	27.04744	-646.78198	781.18524	24.66966	-624.08405	-720.54962	-0.51607	486.95251	693.95905	-5.49369	592.78290	6.15498	1332.12769	-925.43030	
6139	61.380	-789.13959	26.64110	-646.97552	781.29230	24.46178	-624.11682	-720.33179	-0.43263	486.96451	694.03601	-5.37495	592.76904	6.30586	1331.74109	-926.01019	
6140	61.390	-789.10333	26.57813	-647.06299	781.41229	24.31570	-624.16364	-720.16278	-0.52119	486.99179	694.05713	-5.24061	592.66925	6.45745	1331.59155	-926.44019	
6141	61.400	-789.07001	26.43705	-647.14484	781.53168	24.19053	-624.20471	-720.12970	-0.42947	486.84402	694.08508	-5.10211	592.61841	6.43104	1331.37109	-926.85419	
6142	61.410	-788.98407	26.33678	-647.22485	781.65375	24.04816	-624.22070	-720.10583	-0.32849	486.78821	694.18250	-4.89653	592.57513	6.56746	1331.05273	-927.50281	
6143	61.420	-788.81183	26.09340	-647.24902	781.74707	23.92453	-624.25934	-720.02167	-0.31082	486.71393	694.12189	-4.85578	592.49286	6.84573	1330.81824	-927.93518	
6144	61.430	-788.68323	25.87010	-647.23425	781.82813	23.79385	-624.32178	-719.95258	-0.17973	486.67514	694.28802	-4.67884	592.47528	6.84288	1330.72473	-928.38715	
6145	61.440	-788.56036	25.68931	-647.21124	781.76825	23.68889	-624.32623	-719.80035	-0.03120	486.59073	694.60333	-4.45072	592.46338	6.90540	1330.44287	-929.05237	
6146	61.450	-788.42010	25.53854	-647.18811	781.83398	23.55891	-624.38110	-719.64233	0.13162	486.50797	694.85742	-4.19742	592.41486	7.23969	1330.21326	-929.50110	
6147	61.460	-788.25500	25.45581	-647.22070	782.06433	23.43511	-624.48334	-719.57556	0.31372	486.45694	695.14069	-3.93611	592.38422	7.37313	1329.95679	-929.84387	
6148	61.470	-788.10071	25.25354	-647.12714	782.16571	23.20948	-624.54266	-719.48059	0.48758	486.41895	695.29993	-3.76148	592.35638	7.36730	1329.75183	-930.14539	
6149	61.480	-787.96082	25.04726	-647.06671	782.25305	22.99541	-624.58392	-719.35815	0.57617	486.39017	695.34778	-3.65497	592.30377	7.51705	1329.56506	-930.32538	
6150	61.490	-787.79681	24.88554	-647.09155	782.24713	22.84152	-624.61371	-719.29718	0.68902	486.40079	695.40729	-3.54088	592.27081	7.55994	1329.46570	-930.39130	
6151	61.500	-787.74438	24.63365	-647.09985	782.29480	22.74459	-624.65161	-719.22021	0.78222	486.42117	695.46021	-3.46923	592.26923	7.63264	1329.29810	-930.48242	
6152	61.510	-787.55688	24.63284	-647.01093	782.39758	22.60570	-624.65631	-719.18091	0.84088	486.40848	695.50562	-3.41238	592.24225	7.79398	1329.06616	-930.60754	
6153	61.520	-787.48920	24.51390	-647.02319	782.57721	22.44691	-624.79865	-719.15918	0.95108	486.37830	695.45551	-3.34380	592.18567	7.84262	1328.86804	-930.90479	
6154	61.530	-787.32336	24.36180	-647.05908	782.64484	22.33865	-624.88257	-719.11774	1.03036	486.36230	695.46008	-3.25545	592.15698	7.79108	1328.57239	-931.28967	
6155	61.540	-787.31360	24.24440	-647.12506	782.70020	22.23886	-624.91827	-719.08478	1.07543	486.33493	695.47955	-3.17123	592.13239	7.72172	1328.37073	-931.63306	
6156	61.550	-787.11273	24.06960	-647.16205	782.76520	22.15410	-624.93018	-718.99951	1.14166	486.29477	695.46466	-3.10734	592.09485	7.80970	1328.22131	-931.97021	
6157	61.560	-787.09540	23.99495	-647.23657	782.83105	22.05832	-624.92224	-718.95697	1.27534	486.27811	695.53021	-3.05069	592.10071	7.98366	1327.98169	-932.40033	
6158	61.570	-787.05438	23.93811	-647.22736	782.88422	21.97448	-624.96350	-718.80530	1.34020	486.23502	695.60693	-2.93226	592.11304	8.22929	1327.87195	-932.87360	
6159	61.580	-786.99493	23.83455	-647.28040	782.97968	21.86904	-624.95441	-718.75116	1.43627	486.26840	695.65833	-2.92799	592.07043	8.28738	1327.79626	-933.26428	
6160	61.590	-786.90253	23.70109	-647.36646	783.01758	21.78633	-624.95190	-718.72607	1.48247	486.24173	695.63428	-2.72706	592.19470	8.31040	1327.70471	-933.42780	
6161	61.600	-786.88550	23.61034	-647.40308	783.10394	21.72240	-624.94720	-718.64606	1.54395	486.30029	695.67596	-2.81331	592.06396	8.35468	1327.57019	-933.68536	
